<?xml version="1.0" encoding="utf-8"?>
<!-- Generator: Adobe Illustrator 21.1.0, SVG Export Plug-In . SVG Version: 6.00 Build 0)  -->
<svg version="1.1" id="Livello_1" xmlns="http://www.w3.org/2000/svg" xmlns:xlink="http://www.w3.org/1999/xlink" x="0px" y="0px"
	 viewBox="0 0 120 120" style="enable-background:new 0 0 120 120;" xml:space="preserve">
<style type="text/css">
	.st0{fill:#00C3E3;}
	.st1{fill:#00D8CF;}
	.st2{fill:#29ABE2;}
</style>
<g>
	<polygon class="st0" points="75.5,23.2 44.5,57.3 46.7,89 74.5,70.7 82.3,27.9 89.9,23.9 85.1,19.3 89.9,13.8 81.8,8.9 70.4,17.1 
		57.1,23.2 75.5,23.2 	"/>
	<polygon class="st0" points="88.9,19.3 92.5,22.6 101.8,19.2 92.3,15.3 	"/>
	<polygon class="st1" points="40.9,54.9 70.4,24.8 20.9,28.7 41.9,76.5 	"/>
	<polygon class="st1" points="17.6,29.5 40.6,79 20.9,75.2 	"/>
	<path class="st2" d="M40.6,85.7"/>
	<polygon class="st0" points="43.4,80.3 43.4,94.6 52.9,89 33.8,111.1 	"/>
	<polygon class="st2" points="84.6,29.5 77.9,71.7 54.4,87 91.3,82.7 	"/>
</g>
</svg>
