<?xml version="1.0" encoding="utf-8"?>
<!-- Generator: Adobe Illustrator 21.1.0, SVG Export Plug-In . SVG Version: 6.00 Build 0)  -->
<svg version="1.1" id="Livello_1" xmlns="http://www.w3.org/2000/svg" xmlns:xlink="http://www.w3.org/1999/xlink" x="0px" y="0px"
	 viewBox="0 0 700 120" style="enable-background:new 0 0 700 120;" xml:space="preserve">
<style type="text/css">
	.st0{clip-path:url(#SVGID_2_);fill:#00C3E3;}
	.st1{clip-path:url(#SVGID_4_);fill:#00C3E3;}
	.st2{clip-path:url(#SVGID_6_);fill:#00D8CF;}
	.st3{clip-path:url(#SVGID_8_);fill:#00D8CF;}
	.st4{clip-path:url(#SVGID_10_);fill:#00C3E3;}
	.st5{clip-path:url(#SVGID_12_);fill:#29ABE2;}
	.st6{fill:none;}
	.st7{font-family:'Raleway-Bold';}
	.st8{font-size:50px;}
	.st9{letter-spacing:20;}
</style>
<g>
	<g>
		<g>
			<defs>
				<rect id="SVGID_1_" x="86.8" width="120" height="120"/>
			</defs>
			<clipPath id="SVGID_2_">
				<use xlink:href="#SVGID_1_"  style="overflow:visible;"/>
			</clipPath>
			<polygon class="st0" points="162.3,23.2 131.3,57.3 133.5,89 161.3,70.8 169.1,27.9 176.7,23.9 171.9,19.3 176.7,13.8 168.6,8.9 
				157.2,17.1 143.9,23.2 			"/>
		</g>
		<g>
			<defs>
				<rect id="SVGID_3_" x="86.8" width="120" height="120"/>
			</defs>
			<clipPath id="SVGID_4_">
				<use xlink:href="#SVGID_3_"  style="overflow:visible;"/>
			</clipPath>
			<polygon class="st1" points="175.7,19.3 179.3,22.6 188.6,19.2 179.1,15.3 			"/>
		</g>
		<g>
			<defs>
				<rect id="SVGID_5_" x="86.8" width="120" height="120"/>
			</defs>
			<clipPath id="SVGID_6_">
				<use xlink:href="#SVGID_5_"  style="overflow:visible;"/>
			</clipPath>
			<polygon class="st2" points="127.7,54.9 157.2,24.8 107.7,28.7 128.7,76.5 			"/>
		</g>
		<g>
			<defs>
				<rect id="SVGID_7_" x="86.8" width="120" height="120"/>
			</defs>
			<clipPath id="SVGID_8_">
				<use xlink:href="#SVGID_7_"  style="overflow:visible;"/>
			</clipPath>
			<polygon class="st3" points="104.4,29.5 127.4,79 107.7,75.2 			"/>
		</g>
		<g>
			<defs>
				<rect id="SVGID_9_" x="86.8" width="120" height="120"/>
			</defs>
			<clipPath id="SVGID_10_">
				<use xlink:href="#SVGID_9_"  style="overflow:visible;"/>
			</clipPath>
			<polygon class="st4" points="130.2,80.3 130.2,94.6 139.7,89 120.6,111.1 			"/>
		</g>
		<g>
			<defs>
				<rect id="SVGID_11_" x="86.8" width="120" height="120"/>
			</defs>
			<clipPath id="SVGID_12_">
				<use xlink:href="#SVGID_11_"  style="overflow:visible;"/>
			</clipPath>
			<polygon class="st5" points="171.4,29.5 164.7,71.7 141.2,87 178.1,82.7 			"/>
		</g>
	</g>
</g>
<rect x="222.4" y="40.9" class="st6" width="354.9" height="38.2"/>
<text transform="matrix(1 0 0 1 222.4478 77.4246)" class="st7 st8 st9">HIRUNDO</text>
</svg>
